<svg xmlns="http://www.w3.org/2000/svg" xmlns:xlink="http://www.w3.org/1999/xlink" width="18" height="18" viewBox="0 0 18 18">
  <path id="phone_icon" data-name="phone icon" class="cls-1" d="M15.574,2.357A8.348,8.348,0,0,0,9.718,0a0.647,0.647,0,0,0-.656.638,0.648,0.648,0,0,0,.656.638A7.025,7.025,0,0,1,14.646,3.26,6.636,6.636,0,0,1,16.687,8.05,0.656,0.656,0,0,0,18,8.05,7.887,7.887,0,0,0,15.574,2.357Zm-2.7,5.693a0.656,0.656,0,0,0,1.312,0A4.414,4.414,0,0,0,9.718,3.706h0a0.638,0.638,0,1,0,0,1.276A3.118,3.118,0,0,1,12.875,8.05ZM11.423,11.3a1.986,1.986,0,0,0-1.754,1.021,0.627,0.627,0,0,0,.171.887,0.668,0.668,0,0,0,.912-0.167,0.708,0.708,0,0,1,.6-0.467,8.443,8.443,0,0,1,3.029,2.157,0.641,0.641,0,0,1-.006.465,2.217,2.217,0,0,1-1.124,1.377,2.163,2.163,0,0,1-1.687-.056,18.586,18.586,0,0,1-6.084-3.85l0,0A17.989,17.989,0,0,1,1.521,6.761a2,2,0,0,1-.057-1.64A2.25,2.25,0,0,1,2.88,4.028a0.7,0.7,0,0,1,.478-0.007,8.249,8.249,0,0,1,2.22,2.939,0.685,0.685,0,0,1-.479.586,0.628,0.628,0,0,0-.172.887,0.668,0.668,0,0,0,.912.167,1.921,1.921,0,0,0,1.05-1.707A7.825,7.825,0,0,0,3.817,2.827a2.034,2.034,0,0,0-1.355-.008A3.508,3.508,0,0,0,.271,4.59,3.2,3.2,0,0,0,.306,7.242a19.251,19.251,0,0,0,4.243,6.33l0.013,0.012a19.921,19.921,0,0,0,6.5,4.118,3.991,3.991,0,0,0,1.465.3,3.089,3.089,0,0,0,1.263-.263,3.465,3.465,0,0,0,1.822-2.13,1.879,1.879,0,0,0-.007-1.315C15.249,13.341,12.473,11.358,11.423,11.3Z"/>
</svg>
